<svg width="51" height="50" viewBox="0 0 51 50" fill="none" xmlns="http://www.w3.org/2000/svg">
<g clip-path="url(#clip0)">
<path d="M25.786 49.9998C39.5739 49.9998 50.7512 38.807 50.7512 24.9999C50.7512 11.1928 39.5739 0 25.786 0C11.998 0 0.820709 11.1928 0.820709 24.9999C0.820709 38.807 11.998 49.9998 25.786 49.9998Z" fill="#4E598F"/>
<path d="M50.7108 23.6035L38.9521 11.8247C38.7572 11.8838 38.2712 11.6573 38.0575 11.7003C33.014 12.5421 28.1387 11.7003 23.2633 13.0471C20.9096 13.7205 20.7415 16.5824 19.901 18.4342C18.7242 21.8012 18.8923 25.5049 17.3792 28.7035C16.3705 30.8921 14.0169 32.2389 13.1762 34.7642C12.8959 35.8174 12.9125 37.1449 12.5954 38.1518L24.3934 49.9606C24.8542 49.986 25.3179 49.9999 25.785 49.9999C39.5728 49.9999 50.7502 38.807 50.7502 25C50.7503 24.5313 50.7363 24.0658 50.7108 23.6035Z" fill="#364270"/>
<path d="M36.2238 10.6899H15.3461C13.2193 10.6899 11.4951 12.4165 11.4951 14.5464V35.453C11.4951 37.583 13.2192 39.3095 15.3461 39.3095H25.6427L25.6606 29.0827H23.007C22.6622 29.0827 22.3823 28.8034 22.3812 28.4581L22.3682 25.1614C22.3668 24.8144 22.6478 24.5321 22.9943 24.5321H25.6431V21.3467C25.6431 17.6503 27.8976 15.6375 31.1905 15.6375H33.8928C34.2383 15.6375 34.5188 15.9181 34.5188 16.2644V19.044C34.5188 19.3903 34.2386 19.671 33.8932 19.671L32.2347 19.6719C30.444 19.6719 30.097 20.524 30.097 21.7748V24.5325H34.032C34.4073 24.5325 34.6981 24.8604 34.6537 25.233L34.2635 28.5297C34.2264 28.8453 33.9591 29.0829 33.6418 29.0829H30.1147L30.0969 39.31H36.2237C38.3505 39.31 40.0748 37.5833 40.0748 35.4535V14.5464C40.0749 12.4166 38.3506 10.6899 36.2238 10.6899Z" fill="white"/>
<path d="M25.6428 39.3092L25.6607 29.0825H25.6169V39.3092H25.6428Z" fill="white"/>
<path d="M36.2238 10.6899H25.6169V24.5318H25.6431V21.3465C25.6431 17.6501 27.8976 15.6373 31.1905 15.6373H33.8928C34.2383 15.6373 34.5189 15.9179 34.5189 16.2642V19.0438C34.5189 19.3901 34.2386 19.6708 33.8932 19.6708L32.2347 19.6717C30.444 19.6717 30.097 20.5238 30.097 21.7746V24.5322H34.032C34.4073 24.5322 34.6981 24.8601 34.6537 25.2327L34.2636 28.5294C34.2264 28.845 33.9591 29.0826 33.6419 29.0826H30.1147L30.0969 39.3097H36.2237C38.3505 39.3097 40.0748 37.583 40.0748 35.4532V14.5464C40.0749 12.4166 38.3506 10.6899 36.2238 10.6899Z" fill="#D1D1D1"/>
</g>
<defs>
<clipPath id="clip0">
<rect x="0.819702" width="49.9307" height="50" fill="white"/>
</clipPath>
</defs>
</svg>
