<svg width="51" height="50" viewBox="0 0 51 50" fill="none" xmlns="http://www.w3.org/2000/svg">
<g clip-path="url(#clip0)">
<path d="M25.577 50C39.3649 50 50.5423 38.8071 50.5423 25C50.5423 11.1929 39.3649 0 25.577 0C11.789 0 0.611633 11.1929 0.611633 25C0.611633 38.8071 11.789 50 25.577 50Z" fill="#6C27B3"/>
<path d="M37.1537 12.9807C34.1708 13.3588 31.0607 13.3456 27.9307 13.0472C23.5596 12.7105 17.1712 10.6902 14.8175 14.7307C11.0365 21.199 12.9013 29.4802 13.7824 36.8086L26.9221 49.9637C39.6376 49.2876 49.8284 39.0841 50.5057 26.3514L37.1537 12.9807Z" fill="#501A96"/>
<path d="M31.3528 10.6902H19.801C15.1063 10.6902 11.287 14.5148 11.287 19.216V30.7838C11.287 35.4848 15.1063 39.3097 19.8011 39.3097H31.3529C36.0474 39.3097 39.867 35.485 39.867 30.7838V19.216C39.8669 14.5148 36.0475 10.6902 31.3528 10.6902ZM36.9917 30.7839C36.9917 33.9025 34.4671 36.4306 31.3529 36.4306H19.8011C16.6868 36.4306 14.1622 33.9025 14.1622 30.7839V19.2161C14.1622 16.0975 16.6868 13.5693 19.8011 13.5693H31.3529C34.4671 13.5693 36.9917 16.0976 36.9917 19.2161V30.7839Z" fill="white"/>
<path d="M25.5769 17.5979C21.5011 17.5979 18.185 20.9186 18.185 25C18.185 29.0812 21.5011 32.4019 25.5769 32.4019C29.6527 32.4019 32.9685 29.0815 32.9685 25C32.9685 20.9186 29.6527 17.5979 25.5769 17.5979ZM25.5769 29.5228C23.0824 29.5228 21.0601 27.4981 21.0601 25C21.0601 22.502 23.0824 20.477 25.5769 20.477C28.0714 20.477 30.0934 22.5019 30.0934 25C30.0934 27.498 28.0714 29.5228 25.5769 29.5228Z" fill="white"/>
<path d="M34.7539 17.6536C34.7539 18.6331 33.9609 19.4273 32.9826 19.4273C32.0045 19.4273 31.2114 18.6331 31.2114 17.6536C31.2114 16.674 32.0045 15.8799 32.9826 15.8799C33.9611 15.8799 34.7539 16.6738 34.7539 17.6536Z" fill="#D1D1D1"/>
<path d="M31.3529 10.6902H25.521V13.5693H31.3529C34.4671 13.5693 36.9918 16.0976 36.9918 19.2161V30.7839C36.9918 33.9025 34.4671 36.4306 31.3529 36.4306H25.521V39.3097H31.3529C36.0474 39.3097 39.8669 35.485 39.8669 30.7838V19.216C39.8669 14.5148 36.0475 10.6902 31.3529 10.6902Z" fill="#D1D1D1"/>
<path d="M25.5769 17.5979C25.5581 17.5979 25.5398 17.5993 25.521 17.5993V20.4784C25.5396 20.4782 25.5581 20.477 25.5769 20.477C28.0714 20.477 30.0934 22.5019 30.0934 25C30.0934 27.498 28.0715 29.5228 25.5769 29.5228C25.5581 29.5228 25.5396 29.5216 25.521 29.5214V32.4005C25.5398 32.4007 25.5581 32.4019 25.5769 32.4019C29.6527 32.4019 32.9685 29.0814 32.9685 25C32.9685 20.9186 29.6527 17.5979 25.5769 17.5979Z" fill="#D1D1D1"/>
</g>
<defs>
<clipPath id="clip0">
<rect x="0.611633" width="49.9307" height="50" fill="white"/>
</clipPath>
</defs>
</svg>
