<svg width="51" height="50" viewBox="0 0 51 50" fill="none" xmlns="http://www.w3.org/2000/svg">
<g clip-path="url(#clip0)">
<path d="M25.681 50C39.469 50 50.6463 38.8071 50.6463 25C50.6463 11.1929 39.469 0 25.681 0C11.893 0 0.715668 11.1929 0.715668 25C0.715668 38.8071 11.893 50 25.681 50Z" fill="#65A2D9"/>
<path d="M39.0427 13.6062C36.4386 15.8688 33.8494 17.8518 31.7331 20.623C26.5274 26.9093 20.1659 35.8281 11.5087 34.4986L26.9765 49.9669C40.0887 49.2957 50.5274 38.493 50.6434 25.2232L39.0427 13.6062Z" fill="#3A7CA5"/>
<path d="M39.5165 15.8664C38.8813 16.1485 38.2223 16.371 37.5458 16.5319C38.2912 15.8229 38.8516 14.9356 39.1676 13.9456C39.2579 13.6631 38.9512 13.4185 38.6964 13.5698C37.7553 14.1289 36.7417 14.548 35.6836 14.8161C35.6224 14.8317 35.5592 14.8396 35.4955 14.8396C35.3025 14.8396 35.1156 14.768 34.9678 14.6379C33.8422 13.6443 32.3942 13.0972 30.891 13.0972C30.2403 13.0972 29.5837 13.1987 28.939 13.399C26.9411 14.0194 25.3995 15.6699 24.9156 17.706C24.7342 18.4694 24.6852 19.2341 24.7697 19.9778C24.7791 20.0634 24.739 20.123 24.7142 20.1509C24.6703 20.1999 24.6085 20.2281 24.544 20.2281C24.537 20.2281 24.5294 20.2278 24.5222 20.2272C20.1487 19.8201 16.2049 17.7104 13.4176 14.286C13.2757 14.1113 13.0028 14.1328 12.8895 14.3272C12.3438 15.2653 12.0553 16.3379 12.0553 17.4294C12.0553 19.102 12.7266 20.6784 13.8923 21.8277C13.4021 21.7112 12.9275 21.5279 12.4866 21.2826C12.2733 21.1641 12.011 21.3168 12.008 21.561C11.9778 24.0459 13.4306 26.257 15.607 27.2526C15.5631 27.2536 15.5192 27.254 15.4753 27.254C15.1304 27.254 14.7809 27.221 14.4372 27.1549C14.197 27.1093 13.9953 27.3372 14.0698 27.5702C14.7764 29.779 16.6752 31.4069 18.9479 31.7763C17.0619 33.0441 14.8654 33.7128 12.5796 33.7128L11.8671 33.7125C11.6472 33.7125 11.4614 33.856 11.4058 34.069C11.3507 34.2784 11.452 34.4999 11.6395 34.609C14.2152 36.1102 17.1534 36.9034 20.1372 36.9034C22.7492 36.9034 25.1925 36.3846 27.3992 35.3607C29.4223 34.4223 31.2099 33.0809 32.7127 31.3736C34.1128 29.7832 35.2074 27.9474 35.9665 25.9167C36.6899 23.9815 37.0724 21.916 37.0724 19.9446V19.8505C37.0724 19.534 37.2153 19.2361 37.4648 19.0331C38.4114 18.2634 39.2358 17.3575 39.9147 16.3405C40.0942 16.0722 39.8114 15.7354 39.5165 15.8664Z" fill="white"/>
<path d="M39.5165 15.8664C38.8811 16.1485 38.2223 16.371 37.5458 16.5319C38.2912 15.8228 38.8516 14.9356 39.1677 13.9456C39.258 13.6631 38.9513 13.4185 38.6965 13.5698C37.7554 14.1289 36.7418 14.5479 35.6837 14.8161C35.6225 14.8317 35.5593 14.8395 35.4956 14.8395C35.3026 14.8395 35.1157 14.768 34.9679 14.6379C33.8423 13.6443 32.3943 13.0972 30.891 13.0972C30.2405 13.0972 29.5838 13.1987 28.9391 13.399C27.5424 13.8327 26.3701 14.7709 25.6248 15.9914V36.0575C26.2316 35.8594 26.8236 35.6275 27.3995 35.3603C29.4226 34.422 31.2102 33.0806 32.713 31.3733C34.1131 29.7828 35.2077 27.9471 35.9668 25.9164C36.6902 23.9812 37.0727 21.9157 37.0727 19.9443V19.8502C37.0727 19.5337 37.2156 19.2358 37.4651 19.0328C38.4117 18.2631 39.2361 17.3572 39.915 16.3402C40.0942 16.0722 39.8114 15.7354 39.5165 15.8664Z" fill="#D1D1D1"/>
</g>
<defs>
<clipPath id="clip0">
<rect x="0.715668" width="49.9307" height="50" fill="white"/>
</clipPath>
</defs>
</svg>
