<svg width="51" height="50" viewBox="0 0 51 50" fill="none" xmlns="http://www.w3.org/2000/svg">
<g clip-path="url(#clip0)">
<path d="M25.889 50C39.677 50 50.8544 38.8071 50.8544 25C50.8544 11.1929 39.677 0 25.889 0C12.1011 0 0.923706 11.1929 0.923706 25C0.923706 38.8071 12.1011 50 25.889 50Z" fill="#D22215"/>
<path d="M38.4553 16.6345C37.7066 16.8633 36.9259 17.0599 36.1441 17.2557C30.5963 18.4341 23.1991 15.2355 20.0049 20.4543C17.3409 24.6041 16.4998 29.7969 13.4694 33.5074L29.6562 49.7166C40.4293 48.0838 48.9431 39.5569 50.572 28.7683L38.4553 16.6345Z" fill="#A81411"/>
<path d="M34.2416 14.8762H17.5365C14.259 14.8762 11.6021 17.5369 11.6021 20.8188V29.1813C11.6021 32.4633 14.2591 35.1239 17.5365 35.1239H34.2416C37.5191 35.1239 40.1759 32.4632 40.1759 29.1813V20.8188C40.1759 17.5369 37.519 14.8762 34.2416 14.8762ZM30.2281 25.4069L22.4148 29.1385C22.2065 29.238 21.9659 29.0862 21.9659 28.8552V21.1586C21.9659 20.9242 22.2128 20.7723 22.4213 20.8783L30.2347 24.8432C30.4674 24.9611 30.4632 25.2948 30.2281 25.4069Z" fill="white"/>
<path d="M34.2416 14.8762H25.7209V22.5525L30.2348 24.843C30.4673 24.961 30.4631 25.2946 30.2281 25.4068L25.7209 27.5595V35.1239H34.2416C37.5191 35.1239 40.1759 32.4632 40.1759 29.1813V20.8188C40.1759 17.5369 37.519 14.8762 34.2416 14.8762Z" fill="#D1D1D1"/>
</g>
<defs>
<clipPath id="clip0">
<rect x="0.923706" width="49.9307" height="50" fill="white"/>
</clipPath>
</defs>
</svg>
