<svg width="100" height="100" viewBox="0 0 100 100" fill="none" xmlns="http://www.w3.org/2000/svg">
<circle cx="50" cy="50" r="50" fill="black"/>
<mask id="mask0" mask-type="alpha" maskUnits="userSpaceOnUse" x="0" y="0" width="100" height="100">
<circle cx="50" cy="50" r="50" fill="black"/>
</mask>
<g mask="url(#mask0)">
<path d="M86.5 22.5C85.5 23 76.4 28.7 48 47.5C59.2 12.7 61 2 60.5 1L45.5 0C46.1667 2.16667 45.3 7.6 38.5 10C31.7 12.4 27.3333 8.33333 26 6C23.2 8 17.1667 12.8333 14.5 15C21.7 25.8 34.1667 26.1667 39.5 25L21.5 82.5L60.5 57L46 103.5L61.5 102L86.5 22.5Z" fill="white" stroke="white"/>
</g>
</svg>
