<svg width="31" height="30" viewBox="0 0 31 30" fill="none" xmlns="http://www.w3.org/2000/svg">
<path d="M29.5045 12.7508L23.7627 9.81653L15.8959 15.0176L23.7625 20.2186L29.524 17.2742C30.4223 16.7913 30.9583 15.9475 30.9583 15.0177C30.9583 14.0879 30.4222 13.2441 29.5045 12.7508Z" fill="#FF9100"/>
<path d="M17.8848 15.0176C17.8762 15.0274 10.9293 22.9307 10.9237 22.9371L1.87419 29.2433C1.31723 28.7505 0.979187 28.0819 0.979187 27.3426V2.64902C0.979187 1.90993 1.31723 1.24112 1.87419 0.748413L10.9237 7.09818C10.9293 7.10457 17.8762 15.0078 17.8848 15.0176Z" fill="#25D9F8"/>
<path d="M17.8848 15.0176L15.8959 17.2878V12.7473L17.8848 15.0176Z" fill="#00C0F1"/>
<path d="M23.7726 9.80831L17.8854 15.0176L1.87482 0.74845C2.07364 0.590002 2.2726 0.46681 2.49138 0.343619C3.44598 -0.13149 4.57972 -0.11395 5.51456 0.396474L15.8965 5.79584L23.7726 9.80831Z" fill="#7FE881"/>
<path d="M23.772 9.80837L17.8848 15.0177L15.8959 13.2578V5.7959L23.772 9.80837Z" fill="#5BC980"/>
<path d="M23.7726 20.2268L15.8965 24.2394L5.49468 29.6129C5.01734 29.8592 4.50023 30 3.96316 30C3.46593 30 2.96871 29.8768 2.49138 29.6481C2.2726 29.5249 2.07364 29.4017 1.87482 29.2433L17.8854 15.0176L23.7726 20.2268Z" fill="#FF637B"/>
<path d="M23.772 20.2268L15.8959 24.2394V16.7775L17.8848 15.0176L23.772 20.2268Z" fill="#E63950"/>
</svg>
