<svg width="30" height="30" viewBox="0 0 30 30" fill="none" xmlns="http://www.w3.org/2000/svg">
<path d="M14.9896 30C23.2681 30 29.9792 23.2843 29.9792 15C29.9792 6.71573 23.2681 0 14.9896 0C6.71107 0 0 6.71573 0 15C0 23.2843 6.71107 30 14.9896 30Z" fill="#4CAF50"/>
<path d="M21.0754 22.07V22.0712C20.8218 22.0712 20.6644 21.9925 20.4283 21.8537C16.6572 19.5787 12.269 19.4837 7.93448 20.3725C7.6984 20.4337 7.38986 20.53 7.21498 20.53C6.62789 20.53 6.2594 20.0637 6.2594 19.5737C6.2594 18.95 6.62789 18.6537 7.08257 18.5575C12.0329 17.4637 17.0919 17.56 21.4064 20.1425C21.7749 20.3787 21.9935 20.59 21.9935 21.14C21.9935 21.6875 21.5638 22.07 21.0754 22.07Z" fill="#212121"/>
<path d="M22.703 18.1037H22.7017C22.3869 18.1037 22.1758 17.965 21.9572 17.85C18.1786 15.6125 12.5475 14.71 7.536 16.0712C7.2462 16.15 7.08881 16.2287 6.8165 16.2287C6.16945 16.2287 5.64482 15.7025 5.64482 15.0562C5.64482 14.41 5.9596 13.98 6.58167 13.805C8.26175 13.3325 9.97806 12.9812 12.4926 12.9812C16.4148 12.9812 20.2047 13.955 23.1914 15.7337C23.681 16.0237 23.8747 16.4 23.8747 16.925C23.8684 17.5762 23.3613 18.1037 22.703 18.1037Z" fill="#212121"/>
<path d="M5.68104 8.74749C7.80831 8.12374 10.1904 7.82874 12.7836 7.82874C17.1955 7.82874 21.8198 8.74749 25.1987 10.72C25.6709 10.9925 25.9782 11.3675 25.9782 12.0862C25.9782 12.9087 25.3124 13.495 24.5767 13.495L24.5754 13.4937C24.2606 13.4937 24.067 13.415 23.7947 13.2575C19.4927 10.6875 11.7968 10.0712 6.81775 11.4625C6.59915 11.5225 6.32684 11.6187 6.03704 11.6187C5.23885 11.6187 4.62927 10.995 4.62927 10.1912C4.62927 9.36999 5.13767 8.90499 5.68104 8.74749Z" fill="#212121"/>
</svg>
