<svg width="300" height="34" viewBox="0 0 300 34" fill="none" xmlns="http://www.w3.org/2000/svg">
<path d="M0 0.096469C0.388033 1.71224 1.16297 3.18442 2.24429 4.36006C3.32561 5.5357 4.67387 6.37189 6.14898 6.78177H15.7502L16.2421 6.994V33.6002H22.233V7.03259L22.7776 6.82036H32.3876C33.8578 6.39946 35.2008 5.55956 36.2805 4.38562C37.3603 3.21169 38.1385 1.74538 38.5365 0.135057V0.0675283H0V0.096469ZM209.601 0.0578814H203.628V33.6773H230.982C232.278 33.1265 233.431 32.2352 234.341 31.0815C235.25 29.9278 235.889 28.5469 236.2 27.0596H209.584L209.601 0.0578814ZM163.633 6.67566C166.813 5.71097 169.483 2.99054 170.125 0.0385876L136.657 0.096469V19.9209H164.037V26.8956H142.551C140.913 27.3619 139.384 28.205 138.065 29.3692C136.746 30.5333 135.667 31.9919 134.9 33.6484H169.94V13.3224H142.569V6.67566H163.633ZM265.68 33.658H271.618V20.1331H293.21V33.658H299.139V13.3803L265.68 13.3417V33.658ZM74.9736 6.75283H97.8127C99.3089 6.35755 100.678 5.51883 101.77 4.32809C102.862 3.13734 103.635 1.64026 104.006 0L68.7808 0C69.1549 1.63837 69.9295 3.13334 71.021 4.32346C72.1124 5.51358 73.4792 6.35361 74.9736 6.75283ZM74.9736 20.0366H97.8127C99.3081 19.6394 100.676 18.8 101.768 17.6096C102.859 16.4191 103.633 14.9231 104.006 13.2838H68.7808C69.1567 14.9212 69.9319 16.4151 71.023 17.6049C72.1142 18.7948 73.48 19.6354 74.9736 20.0366ZM74.9736 33.6773H97.8127C99.3081 33.2801 100.676 32.4407 101.768 31.2503C102.859 30.0598 103.633 28.5638 104.006 26.9245H68.7808C69.1558 28.5624 69.9307 30.0569 71.022 31.2468C72.1133 32.4368 73.4796 33.2771 74.9736 33.6773ZM270.959 6.77213H293.798C295.296 6.37741 296.666 5.53906 297.759 4.34836C298.853 3.15767 299.628 1.66029 300 0.0192938H264.766C265.139 1.6586 265.913 3.15463 267.004 4.34506C268.096 5.53549 269.464 6.37487 270.959 6.77213Z" fill="white"/>
</svg>
